<?xml version="1.0" encoding="utf-8"?>
<!-- Generator: Adobe Illustrator 23.0.1, SVG Export Plug-In . SVG Version: 6.00 Build 0)  -->
<svg version="1.1" xmlns="http://www.w3.org/2000/svg" xmlns:xlink="http://www.w3.org/1999/xlink" x="0px" y="0px"
	 viewBox="0 0 32 32" style="enable-background:new 0 0 32 32;" xml:space="preserve">
<style type="text/css">
	.st0{fill:#FFFFFF;}
</style>
<g id="Layer_1">
</g>
<g id="Isolation_Mode">
	<g>
		<path class="st0" d="M27.5,4.5c-0.9-0.9-2.4-0.9-3.3,0L4.5,24.2c-0.9,0.9-0.9,2.4,0,3.3c0.9,0.9,2.4,0.9,3.3,0L27.5,7.8
			C28.4,6.9,28.4,5.4,27.5,4.5z"/>
		<path class="st0" d="M4.5,7.8l19.6,19.6c0.9,0.9,2.4,0.9,3.3,0c0.9-0.9,0.9-2.4,0-3.3L7.8,4.5c-0.9-0.9-2.4-0.9-3.3,0
			S3.6,6.9,4.5,7.8z"/>
	</g>
</g>
</svg>
