<svg height="1080" viewBox="0 0 1080 1080" width="1080" xmlns="http://www.w3.org/2000/svg"><g fill="#4c4684"><path d="m1053.5 635.6c-51.9-156.6-221.2-159.4-458.8-162.6-212.2-2.9-205.3 247.3-215.2 426.5-9 164.7 201.6 207.2 403.1 140.5s322.8-247.9 270.9-404.4z"/><ellipse cx="191.3" cy="762.9" rx="112.9" ry="179.9" transform="matrix(.42261826 -.90630779 .90630779 .42261826 -581 613.7)"/><ellipse cx="219.2" cy="433.7" rx="123.3" ry="222.3" transform="matrix(.67687597 -.73609709 .73609709 .67687597 -248.4 301.6)"/><ellipse cx="822.7" cy="272.8" rx="179.9" ry="112.9" transform="matrix(.03 -1 1 .03 528.8 1088.14)"/><ellipse cx="493.9" cy="223.5" rx="123.3" ry="222.3" transform="matrix(.95 -.3 .3 .95 -44.62 161.15)"/></g></svg>