<svg height="1080" viewBox="0 0 1757.1 1080" width="1757.1" xmlns="http://www.w3.org/2000/svg"><g fill="#4c4684"><path d="m1338.7 665c-36-175.6-180.1-221.9-478.6-259.2-266.8-33.4-373.7 255.5-419.7 446.7-42.3 175.6 214.9 251.3 481.2 208.2s453.1-220.1 417.1-395.7z"/><ellipse cx="1340.8" cy="284.9" rx="154" ry="194.5" transform="matrix(.37298778 -.92783625 .92783625 .37298778 576.3 1422.6)"/><ellipse cx="890.4" cy="174.7" rx="165.4" ry="217.1" transform="matrix(.0662739 -.99780147 .99780147 .0662739 657.7 1051.8)"/><ellipse cx="223.2" cy="689.8" rx="194.3" ry="174.4" transform="matrix(.37298778 -.92783625 .92783625 .37298778 -500 639.6)"/><ellipse cx="446.2" cy="301.9" rx="216" ry="167.7" transform="matrix(.78152047 -.6238796 .6238796 .78152047 -90.8 344.7)"/></g></svg>