<?xml version="1.0" encoding="utf-8"?>
<!-- Generator: Adobe Illustrator 23.0.1, SVG Export Plug-In . SVG Version: 6.00 Build 0)  -->
<svg version="1.1" id="Layer_1" xmlns="http://www.w3.org/2000/svg" xmlns:xlink="http://www.w3.org/1999/xlink" x="0px" y="0px"
	 viewBox="0 0 410 151.4" style="enable-background:new 0 0 410 151.4;" xml:space="preserve">
<style type="text/css">
	.st0{fill:#FFFFFF;}
	.st1{fill:#DD1A26;}
</style>
<title>Asset 1</title>
<g>
	<g id="Desktop_Header">
		<path class="st0" d="M30.6,61.8c-0.3,0.6,0.2-0.3,0.4-0.4c0.5-0.6,1.1-1.2,1.8-1.6c2.5-1.6,5.4-2.2,8.3-1.8c2.9,0.2,5.8,2.3,6,5.4
			c0.1,1.4,1.4-0.1,1.6-0.7c0.8-2.6,3.6-3.2,5-0.8c2.2,3.9,1.7,9.7,1.7,13.9c0,2.3,0,4.7-0.3,7c-0.1,0.8-0.1,2.3-0.9,2.8
			c-4.3,3-3.9-8.6-3.9-10.2c0-0.9-0.8-1.3-1.3-0.4c-1.9,3.3-4.3,6.8-5.7,10.4c-1.6,4.2-0.3,8.3,1.7,12.2c4.5,8.9,4.6,20.6,1.6,30.1
			l1.5,0.1c-0.1,0.6,0.1-0.5,0.2-0.6c0.2-0.7,0.4-1.4,0.7-2.1c0.6-1.5,1.2-0.8,2,0.2c2.2,3.1,0.5,7.9-0.7,11
			c-2.9,7.4-8.7,10.9-16.4,11.8c-8.4,1-16.9-1.1-20.8-9.2c-2-4.2-3.9-16.7,3.4-17l-0.6-1.2c-0.7,4.2-0.8,8.4-0.3,12.6l1.7-1.7
			c-0.6-3.8-0.5-7.7,0.2-11.5c1-6,4.7-11.6,7.6-16.9c1.7-3,3.6-5.8,5.1-8.8c2.2-4.7,3.2-10,2.9-15.2c-0.1-1.9-1.5-0.3-1.7,0.7
			c-0.2,2.1-1,4-2.2,5.7c-1.1,1.2-3.6,1-3.6-0.9c0-1.5,0.5-3,0.5-4.6c0-3.6-0.5-7.2-0.9-10.8s-0.4-7,4.2-6.7
			c1.1,0.1,1.8-2.9,0.9-2.9c-11.4-0.6-5.4,16.5-6,22.6c-0.2,1.9-0.9,3.9,0,5.8s3.5,1.3,4.8,0.4c2.5-1.9,3.6-5.9,4-8.9l-1.7,0.7
			c0.3,5.4-1,10.8-3.7,15.4c-1.9,3.1-3.6,6.1-5.3,9.3c-3,5.5-5.8,10.8-6.8,17c-0.6,3.8-0.6,7.6,0,11.3c0.3,1.7,1.8-0.9,1.7-1.7
			c-0.5-3.7-0.4-7.5,0.2-11.3c0.1-0.5,0.1-1.3-0.6-1.3c-3.3,0.1-5.3,3.4-6.3,6.2c-1.6,4.3-1.2,9.6,0.2,14c1.4,4.3,4.3,7.9,8.3,10
			c5,2.8,11.6,2.5,17.1,1.5c10-1.8,15.5-10.4,17.3-19.9c0.6-3.3,0.2-6.8-2.2-9.2s-4.3,4.6-4.6,5.8l-0.2,0.8
			c-0.4,1.7,1.2,1.4,1.5,0.1c2.6-8.6,2.9-17.8,0.9-26.5c-1.1-4.6-5.2-9.1-4.7-14.1c0.2-1.7,1.3-3.3,2.1-4.8c1.1-2,2.2-4,3.3-5.9
			l-1.3-0.4c0,2.8-0.8,14.7,5.2,12.1c3.6-1.6,3.2-8.4,3.2-11.4c0.2-4.2,0-8.4-0.4-12.5c-0.2-2.1-0.8-4.2-2-6
			c-2.7-3.6-6.5,0.9-7.4,3.6l1.6-0.7c-0.8-9.8-15.7-7.7-19.3-1C28.8,61.9,29.7,63.6,30.6,61.8"/>
		<path class="st0" d="M78.1,139.8c5.3-4.6,8.3-11.9,10.9-18.2c1-2.5,1.9-5,3-7.5c0.3-0.8,0.8-1.4,1.4-2c2-2,3.9,0.7,4.8,2.3
			c0.3,0.5,0.6,0.3,1,0c2.4-2,2.3-6,0.7-8.4s-3.6-3.7-6.5-2.4c-1.8,1-3.1,2.6-3.7,4.5c-1.4,3.8-2.6,7.6-4.1,11.3
			c-1.6,3.9-3.7,9.7-7.7,11.7c-0.8,0.4-1.3,3.4,0,2.7c2.6-1.3,4.3-4.1,5.7-6.6c1.9-3.5,3.5-7.1,4.8-10.8c1-2.6,1.7-5.3,2.8-7.9
			c2.7-6.4,10.5,1,7.6,3.5h1c-1.7-3-4.1-5-7-2.1c-1.6,1.6-2.3,3.9-3.1,6c-2.9,7.3-5.7,16.2-11.9,21.4
			C77.1,138,76.9,140.8,78.1,139.8"/>
		<path class="st0" d="M84,125.3c-0.4-3.5-1.1-6.9-2.2-10.3c-1.4-4.7-4.8-9.8-2.9-14.8c1.3-3.3,2.9-6.2,1.8-9.9
			c-0.7-2.4,1.7-3.7,2.9-5.5c1-1.4,1.5-3.1,1.5-4.9c0-0.3-0.1-0.8-0.4-0.9c-0.8-0.2-1.6-0.2-2.4,0.1c-0.9,0.3-1.7,0.7-2.5,1.1
			c-0.3,0.2-1,0.9-1.1,0.8c-0.3-0.2-0.7-0.5-1-0.7c-3.4-2.1-7.8-1.8-10.9,0.8l0.8-0.2c-1.6-1.3-3.4-2.1-5.3-2.5
			c-0.8-0.1-1.2,1-1.3,1.6c-0.7,3.8,0.5,7,2.4,10.2c1.1,1.8,0.4,4,0.9,6c0.6,2.5,2.7,4.8,2.8,7.3c0.1,2.3-1.2,4.3-2.1,6.3
			c-0.8,2-1.6,4-2.2,6c-1.6,4.7-2,9.7-1.1,14.6c0.5-0.7,1.1-1.3,1.6-2c-0.8-2-3.3-5.6-5.7-3.3c-1.6,1.5-1.9,4.2-2,6.3
			c-0.5,7.3,3.6,14.2,10.2,17.3c6.8,3.1,14.8,1.9,18-5.4c1.6-4,2.1-8.4,1.4-12.7c-0.2-1.7-1.8,0.8-1.7,1.8c0.4,2.7,0.3,5.4-0.3,8.1
			c-1.5,6.2-7.1,7.7-12.8,6.5c-6.6-1.2-11.7-6.5-12.8-13.1c-0.5-2-0.4-4,0.1-5.9c0.9-2.4,3.7,1.8,4.1,2.8c0.5,1.3,1.7-1.4,1.6-2
			c-1.1-5.3,0.2-10.6,2-15.6c1.3-3.6,3.3-6.7,3.5-10.7c0.1-2.1-1.1-3.8-1.9-5.6c-0.5-1.1-0.9-2.3-1.2-3.5c-0.2-0.8,0.1-1.7,0-2.6
			c-0.3-2.4-1.9-4.1-2.8-6.3c-0.5-1.5-0.6-3.1-0.4-4.7c-0.4,0.5-0.8,1.1-1.3,1.6c1.8,0.3,3.5,1.1,5,2.3c0.3,0.2,0.6,0.1,0.8-0.2
			c2.8-2.4,7.7-2,10.4,0.3c0.2,0.1,0.4,0.1,0.6,0c1.3-0.8,3.9-2.8,5.6-2c-0.1-0.3-0.3-0.6-0.4-0.9c0,2.6-2.7,3.9-4.1,5.7
			c-0.8,1.2-1,2.7-0.7,4.1c0.1,0.7,0.5,1.4,0.7,2.1c0.3,1.7,0,3.4-0.9,4.9c-0.8,1.5-1.3,3.2-1.6,4.9c-0.6,4.2,1.3,8.1,2.7,11.9
			c1.5,4,2.5,8.2,2.9,12.4C82.6,128.8,84.1,126.3,84,125.3"/>
		<path class="st0" d="M25.7,141.6c5.7-5.8,8.5-13.8,7.5-21.9l-1.4,0.6c4.3,5.7,4.3,13.9,1.8,20.3c-0.4,1,1,2.3,1.4,1.1
			c2.8-7.2,2.7-16.3-2.2-22.7c-0.2-0.3-0.7-0.4-1.1-0.2c-0.2,0.2-0.4,0.5-0.3,0.8c0.9,7.6-1.7,15.1-7.1,20.5
			C23.8,140.8,24.8,142.5,25.7,141.6"/>
		<path class="st0" d="M120.6,60.5c2.7-0.4,5.5-0.6,8.2-0.6c3.9,0,6.8,0.8,8.7,2.4c1.9,1.6,2.9,4,2.9,6.5c0.1,2.5-0.8,4.9-2.5,6.7
			c-2.1,2.1-5.5,3.1-9.3,3.1c-0.9,0-1.8,0-2.6-0.2v11.1h-5.3L120.6,60.5z M125.9,74.2c0.9,0.2,1.7,0.3,2.6,0.2c4,0,6.5-2,6.5-5.4
			c0-3.3-2.3-5-6-5c-1,0-2.1,0.1-3.1,0.3L125.9,74.2z"/>
		<path class="st0" d="M146.2,80.4c0.1,3.8,3.1,5.5,6.6,5.5c2,0,4-0.3,5.9-1l0.8,3.7c-2.4,0.9-4.9,1.4-7.4,1.4
			c-6.9,0-11-4.3-11-10.8c0-5.9,3.6-11.4,10.4-11.4s9.2,5.7,9.2,10.3c0,0.8-0.1,1.5-0.2,2.3L146.2,80.4z M155.5,76.7
			c0.1-2-0.8-5.2-4.4-5.2c-3.3,0-4.7,3-4.9,5.2H155.5z"/>
		<path class="st0" d="M169.8,62.8v5.5h5.1v4h-5.1v9.4c0,2.6,0.7,3.9,2.8,3.9c0.7,0,1.4-0.1,2.1-0.3l0.1,4.1
			c-1.3,0.4-2.6,0.6-3.9,0.6c-1.7,0.1-3.4-0.6-4.6-1.8c-1.1-1.2-1.7-3.1-1.7-5.9v-10h-3.1v-4h3.1v-3.9L169.8,62.8z"/>
		<path class="st0" d="M181.2,80.4c0.1,3.8,3.1,5.5,6.6,5.5c2,0,4-0.3,5.9-1l0.8,3.7c-2.4,0.9-4.9,1.4-7.4,1.4
			c-6.9,0-11-4.3-11-10.8c0-5.9,3.6-11.4,10.4-11.4s9.2,5.7,9.2,10.3c0,0.8-0.1,1.5-0.2,2.3L181.2,80.4z M190.5,76.7
			c0.1-2-0.8-5.2-4.4-5.2c-3.3,0-4.7,3-4.9,5.2H190.5z"/>
		<path class="st0" d="M198.6,75.1c0-2.9-0.1-4.9-0.2-6.9h4.7l0.2,4.1h0.2c0.8-2.6,3.1-4.4,5.8-4.5c0.4,0,0.8,0,1.3,0.1V73
			c-0.5-0.1-1-0.2-1.5-0.2c-2.4-0.1-4.5,1.7-4.8,4.1c-0.1,0.5-0.2,1.1-0.2,1.7v11h-5.4L198.6,75.1z"/>
		<path class="st0" d="M212.9,58.5h5.4v12.7h0.1c1.5-2.3,4.1-3.5,6.8-3.4c5.2,0,8.9,4.3,8.9,10.8c0,7.6-4.8,11.4-9.6,11.4
			c-2.8,0.1-5.4-1.3-6.7-3.7h-0.1l-0.3,3.2h-4.6c0.1-1.4,0.2-3.8,0.2-6L212.9,58.5z M218.2,80.8c0,0.4,0,0.9,0.1,1.3
			c0.6,2.2,2.5,3.7,4.8,3.8c3.4,0,5.4-2.7,5.4-7c0-3.8-1.8-6.8-5.4-6.8c-2.3,0.1-4.3,1.7-4.8,3.9c-0.1,0.5-0.2,0.9-0.2,1.4
			L218.2,80.8z"/>
		<path class="st0" d="M257.3,78.7c0,7.8-5.5,11.3-10.9,11.3c-6,0-10.7-4.2-10.7-11c0-7,4.6-11.3,11-11.3S257.3,72.2,257.3,78.7
			 M241.3,78.9c0,4.1,2,7.2,5.3,7.2c3.1,0,5.2-3,5.2-7.3c0-3.3-1.5-7.1-5.2-7.1S241.3,75.3,241.3,78.9"/>
		<path class="st0" d="M260.4,75.1c0-2.9,0-4.9-0.2-6.9h4.7l0.2,4.1h0.2c0.8-2.6,3.1-4.4,5.8-4.5c0.4,0,0.9,0,1.3,0.1V73
			c-0.5-0.1-1-0.2-1.6-0.2c-2.4-0.1-4.5,1.7-4.8,4.1c-0.1,0.5-0.2,1.1-0.2,1.7v11h-5.4L260.4,75.1z"/>
		<path class="st0" d="M294.5,78.7c0,7.8-5.5,11.3-10.9,11.3c-6,0-10.7-4.2-10.7-11c0-7,4.6-11.3,11-11.3S294.5,72.2,294.5,78.7
			 M278.5,78.9c0,4.1,2,7.2,5.3,7.2c3.1,0,5.2-3,5.2-7.3c0-3.3-1.5-7.1-5.1-7.1S278.5,75.3,278.5,78.9"/>
		<path class="st0" d="M316.7,83.2c0,2.5,0.1,4.6,0.2,6.4h-4.7l-0.3-3.2h-0.1c-1.4,2.4-4,3.8-6.8,3.7c-3.9,0-7.4-2.3-7.4-9.3V68.3
			h5.4v11.6c0,3.5,1.1,5.8,4,5.8c1.8-0.1,3.4-1.2,4.1-2.9c0.2-0.5,0.3-1.1,0.3-1.7V68.3h5.4L316.7,83.2z"/>
		<path class="st0" d="M340.4,86.4c0,4.5-0.9,7.7-3.1,9.7s-5.3,2.6-8.2,2.6c-2.6,0.1-5.1-0.5-7.4-1.7l1.2-4.1c1.9,1.1,4,1.6,6.2,1.6
			c3.5,0,6.1-1.8,6.1-6.4v-1.8h-0.1c-1.4,2-3.7,3.2-6.2,3.1c-5.3,0-9-4.4-9-10.4c0-7,4.5-11.2,9.7-11.2c2.5-0.1,4.9,1.1,6.1,3.3h0.1
			l0.2-2.8h4.7c-0.1,1.4-0.2,3.2-0.2,6.1L340.4,86.4z M335.1,76.8c0-0.5-0.1-1-0.2-1.4c-0.5-2-2.3-3.5-4.4-3.4c-3,0-5.2,2.6-5.2,7
			c0,3.6,1.8,6.6,5.2,6.6c2,0,3.8-1.3,4.4-3.2c0.1-0.6,0.2-1.3,0.2-1.9L335.1,76.8z"/>
		<path class="st0" d="M344.9,58.5h5.4v12.7h0.1c1.4-2.1,3.8-3.4,6.3-3.4c3.6,0,7.4,2.4,7.4,9.2v12.5h-5.4V77.6
			c0-3.1-1.1-5.4-4.1-5.4c-1.9,0-3.6,1.2-4.1,3c-0.2,0.5-0.2,1.1-0.2,1.6v12.7h-5.4V58.5z"/>
		<polygon class="st0" points="127.1,99.6 127.1,111.4 139.5,111.4 139.5,99.6 144.9,99.6 144.9,129.1 139.5,129.1 139.5,116.1 
			127.1,116.1 127.1,129.1 121.7,129.1 121.7,99.6 		"/>
		<path class="st0" d="M167.6,122.7c0,2.5,0.1,4.6,0.2,6.4H163l-0.3-3.2h-0.1c-1.4,2.4-4,3.8-6.8,3.7c-3.9,0-7.4-2.3-7.4-9.3v-12.5
			h5.4v11.6c0,3.5,1.1,5.8,4,5.8c1.8,0,3.4-1.2,4.1-2.9c0.2-0.5,0.3-1.1,0.3-1.7v-12.8h5.4L167.6,122.7z"/>
		<path class="st0" d="M171.2,114.1c0-2.4-0.1-4.5-0.2-6.3h4.6l0.2,3.2h0.1c1.4-2.3,3.9-3.7,6.6-3.6c2.6-0.1,5,1.5,5.9,3.9h0.1
			c0.7-1.1,1.5-2,2.6-2.7c1.3-0.9,2.8-1.3,4.3-1.3c3.5,0,7.1,2.4,7.1,9.2v12.5h-5.3v-11.8c0-3.5-1.2-5.6-3.8-5.6
			c-1.7,0.1-3.2,1.2-3.8,2.8c-0.2,0.6-0.2,1.2-0.3,1.8v12.8h-5.2v-12.3c0-3-1.2-5.1-3.7-5.1c-1.8,0.1-3.4,1.3-3.9,3.1
			c-0.2,0.6-0.3,1.1-0.3,1.7v12.6h-5.2V114.1z"/>
		<path class="st0" d="M223.3,124c0,1.7,0.1,3.4,0.3,5.1h-4.9l-0.4-2.4h-0.1c-1.6,1.9-3.9,2.9-6.3,2.8c-3.5,0.2-6.5-2.5-6.7-5.9
			c0-0.1,0-0.3,0-0.4c0-5.4,4.8-8.1,12.6-8v-0.3c0-1.4-0.6-3.7-4.3-3.7c-2,0-4,0.5-5.7,1.6l-1-3.5c2.4-1.3,5-1.9,7.7-1.9
			c6.8,0,8.8,4.3,8.8,9L223.3,124z M218.1,118.7c-3.8-0.1-7.4,0.7-7.4,4c-0.1,1.6,1,2.9,2.6,3.1c0.2,0,0.3,0,0.5,0
			c1.9,0,3.6-1.1,4.2-2.9c0.1-0.4,0.2-0.8,0.2-1.2V118.7z"/>
		<path class="st0" d="M227.3,114.1c0-2.4,0-4.5-0.2-6.3h4.7l0.3,3.2h0.1c1.4-2.3,4-3.8,6.8-3.7c3.7,0,7.6,2.4,7.6,9.1v12.6h-5.4
			v-12c0-3.1-1.1-5.4-4.1-5.4c-1.9,0-3.6,1.3-4.2,3.1c-0.2,0.6-0.2,1.2-0.2,1.8v12.5h-5.4V114.1z"/>
		<path class="st0" d="M254.5,119.9c0.1,3.8,3.1,5.5,6.5,5.5c2,0,4-0.3,5.9-1l0.8,3.7c-2.4,0.9-4.9,1.4-7.4,1.4
			c-6.9,0-11-4.3-11-10.8c0-5.9,3.6-11.4,10.4-11.4s9.2,5.7,9.2,10.4c0,0.8,0,1.5-0.2,2.3L254.5,119.9z M263.9,116.2
			c0-2-0.8-5.2-4.4-5.2c-3.3,0-4.7,3-4.9,5.2H263.9z"/>
		<path class="st0" d="M279.8,123.2c2.2,1.2,4.6,1.9,7.1,1.9c3.5,0,5.4-1.6,5.4-4c0-2.2-1.5-3.5-5.2-4.9c-4.8-1.8-8-4.3-8-8.6
			c0-4.8,4-8.5,10.4-8.5c2.4-0.1,4.9,0.4,7.1,1.5l-1.3,4.3c-1.8-0.9-3.8-1.4-5.9-1.4c-3.4,0-4.9,1.8-4.9,3.5c0,2.3,1.7,3.3,5.6,4.8
			c5.1,1.9,7.6,4.5,7.6,8.7c0,4.7-3.6,8.9-11.2,8.9c-2.8,0-5.5-0.6-8-1.9L279.8,123.2z"/>
		<path class="st0" d="M321.5,118.2c0,7.8-5.5,11.3-10.9,11.3c-6,0-10.7-4.2-10.7-11c0-7,4.6-11.3,11-11.3S321.5,111.7,321.5,118.2
			 M305.5,118.4c0,4.1,2,7.2,5.3,7.2c3.1,0,5.2-3,5.2-7.3c0-3.3-1.5-7.1-5.2-7.1S305.5,114.9,305.5,118.4"/>
		<path class="st0" d="M340.6,128.4c-1.9,0.8-3.9,1.2-6,1.1c-6.6,0-11-4.3-11-10.9c0-6.4,4.4-11.4,11.8-11.4c1.8,0,3.5,0.3,5.2,1
			l-1,4c-1.3-0.6-2.7-0.8-4.1-0.8c-4.1,0-6.5,3-6.5,6.9c0,4.4,2.8,6.9,6.5,6.9c1.5,0,2.9-0.3,4.2-0.8L340.6,128.4z"/>
		<path class="st0" d="M349.8,101.8c0,1.7-1.3,3-2.9,3.1c-1.7,0-3-1.3-3.1-2.9c0-1.7,1.3-3,2.9-3.1c0,0,0,0,0.1,0
			c1.6-0.1,2.9,1.1,3,2.7C349.8,101.7,349.8,101.8,349.8,101.8 M344.1,107.8h5.4v21.3h-5.4V107.8z"/>
		<path class="st0" d="M357.8,119.9c0.1,3.8,3.1,5.5,6.5,5.5c2,0,4-0.3,5.9-1l0.8,3.7c-2.4,0.9-4.9,1.4-7.4,1.4
			c-6.9,0-11-4.3-11-10.8c0-5.9,3.6-11.4,10.4-11.4s9.2,5.7,9.2,10.4c0,0.8-0.1,1.5-0.2,2.3L357.8,119.9z M367.1,116.2
			c0-2-0.8-5.2-4.4-5.2c-3.3,0-4.7,3-4.9,5.2H367.1z"/>
		<path class="st0" d="M381.6,102.3v5.5h5.1v4h-5.1v9.4c0,2.6,0.7,3.9,2.8,3.9c0.7,0,1.4-0.1,2.1-0.3l0.1,4.1
			c-1.3,0.4-2.6,0.6-3.9,0.6c-1.7,0.1-3.4-0.6-4.6-1.8c-1.1-1.2-1.7-3.2-1.7-6v-10h-3.1v-4h3.1v-3.9L381.6,102.3z"/>
		<path class="st0" d="M394.6,107.8l3.9,11.4c0.4,1.3,0.9,2.9,1.2,4.2h0.1c0.4-1.2,0.7-2.8,1.1-4.2l3.3-11.4h5.8l-5.3,14.5
			c-2.9,8-4.9,11.5-7.4,13.7c-1.6,1.5-3.5,2.4-5.6,2.8l-1.2-4.5c1.1-0.3,2.2-0.8,3.1-1.5c1.2-0.9,2.2-2,2.9-3.4
			c0.2-0.3,0.3-0.6,0.4-1c0-0.4-0.1-0.7-0.3-1.1l-7.8-19.5L394.6,107.8z"/>
		<path class="st0" d="M85.7,46.8V33.3h-0.1v-2.5H69.9v6.1c-7.9-5.7-14.3-11.3-14.3-11.3S43.4,36.2,32,43.3
			C22.2,49.2,11.3,53,0,54.6v1.6c3.5,0.1,6.9-0.1,10.3-0.6v41H16v-42c6.6-1.4,12.9-3.8,18.7-7.1c7.4-4.4,14.4-9.4,21-15
			c6.6,5.6,13.6,10.6,21,15c5.7,3.3,11.9,5.6,18.3,7v42h5.6v-41c3.6,0.5,7.1,0.7,10.7,0.6v-1.6C102.5,53.4,93.8,50.7,85.7,46.8z"/>
		<path class="st1" d="M84.1,16.4c3-1.9,10.1-6.9,9.4-12.2s-7.9-4.9-9.9-0.3c0,0-4.9-5.6-8.7-0.5s6.1,11.7,7.9,12.5L84.1,16.4z"/>
		<path class="st0" d="M76.6,31.7c-0.2-1.9,0.3-3.8,1.2-5.4c1.2-1.8,5.1-1.4,3.8,1c-0.4,0.7-1.6,0.9-2.4,1.1
			c-3.4,0.7-4.5-1.6-4.4-4.4c0.1-3.8,5-5.3,8.1-6.7C88,14.9,95.8,9.9,94.1,3.6C92.6-1.9,85-0.5,83,3.8l1.2-0.1
			C83,2.3,81.3,1.4,79.5,1c-2.7-0.4-5.3,1.3-6,3.9c-1,4.6,4.8,9.4,8.8,11.2c0.4,0.2,1.6-0.2,0.9-0.5c-3.5-1.6-6.4-4.4-8.1-7.8
			c-1.1-2.5,0.5-6.6,4-6.2C80.6,2,82,2.8,83,4.1c0.2,0.3,1,0.3,1.2-0.1C85,2.1,86.9,0.8,89,0.6c2.8-0.1,3.8,2.5,3.9,4.7
			c0.1,4.4-4.4,7.8-8,10c-3.2,1.9-7,2.9-9.9,5.2c-2.2,1.8-2.2,5.7-0.3,7.6s9.4,1,8.4-2.5c-0.7-2.4-5.1-1.3-6.3,0
			c-1.4,1.5-1.6,4.1-1.5,6C75.3,32.2,76.6,32.2,76.6,31.7"/>
	</g>
</g>
</svg>
