<svg enable-background="new 0 0 250 100" viewBox="0 0 250 100" xmlns="http://www.w3.org/2000/svg"><g fill="#fff"><path d="m18.7 41.5c-.2.4.1-.2.2-.3.3-.4.7-.7 1.1-1 1.5-.9 3.3-1.3 5.1-1.1s3.5 1.4 3.7 3.3c.1.9.8-.1 1-.4.5-1.6 2.2-2 3-.5 1.4 2.4 1 5.9 1 8.5 0 1.4 0 2.9-.2 4.3-.1.5-.1 1.4-.5 1.7-2.6 1.8-2.4-5.3-2.4-6.2 0-.6-.5-.8-.8-.2-1.2 2-2.6 4.1-3.4 6.3-1 2.6-.2 5.1 1 7.4 2.7 5.4 2.8 12.6 1 18.4h.9c-.1.4.1-.3.1-.3.1-.4.3-.8.4-1.3.4-.9.8-.5 1.2.1 1.4 1.9.3 4.8-.4 6.7-1.8 4.5-5.3 6.6-10 7.2-5.1.6-10.3-.7-12.7-5.6-1.2-2.5-2.3-10.1 2.1-10.3l-.3-.7c-.5 2.5-.5 5.1-.2 7.7l1-1.1c-.3-2.3-.3-4.7.1-7 .6-3.7 2.8-7.1 4.7-10.3 1-1.8 2.2-3.5 3.1-5.4 1.4-2.9 2-6.1 1.8-9.3 0-1.1-.9-.2-1 .4-.1 1.3-.6 2.5-1.4 3.5-.7.7-2.2.6-2.2-.5 0-.9.3-1.8.3-2.8 0-2.2-.3-4.4-.5-6.6s-.3-4.3 2.6-4.1c.7 0 1.1-1.8.5-1.8-6.9-.4-3.3 10.1-3.7 13.8-.1 1.2-.5 2.4 0 3.5s2.1.8 2.9.2c1.6-1.1 2.2-3.6 2.4-5.4l-1 .4c.2 3.3-.6 6.6-2.3 9.4-1.1 1.9-2.2 3.7-3.3 5.6-1.8 3.3-3.5 6.6-4.1 10.4-.4 2.3-.4 4.6 0 6.9.2 1.1 1.1-.5 1-1.1-.3-2.3-.3-4.6.1-6.9.1-.3 0-.8-.4-.8-2 .1-3.2 2.1-3.9 3.8-1 2.7-.7 5.9.1 8.5s2.6 4.8 5 6.1c3 1.7 7.1 1.5 10.4.9 6.1-1.1 9.5-6.3 10.5-12.1.4-2 .1-4.1-1.3-5.6s-2.6 2.8-2.8 3.5l-.1.5c-.2 1 .7.8.9 0 1.6-5.3 1.8-10.8.6-16.2-.7-2.8-3.2-5.5-2.9-8.6.1-1.1.8-2 1.3-2.9.7-1.2 1.3-2.4 2-3.6l-.8-.2c0 1.7-.5 9 3.2 7.4 2.2-1 1.9-5.1 2-7 .1-2.5 0-5.1-.3-7.6-.1-1.3-.5-2.6-1.2-3.7-1.7-2.2-3.9.6-4.5 2.2l1-.4c-.5-6-9.6-4.7-11.8-.6 0 1 .5 2 1.1.9"/><path d="m47.6 89.1c3.2-2.8 5-7.2 6.6-11.1.6-1.5 1.2-3 1.8-4.6.2-.5.5-.9.8-1.2 1.2-1.2 2.4.4 2.9 1.4.2.3.4.2.6 0 1.5-1.2 1.4-3.7.4-5.1-1-1.5-2.2-2.3-4-1.5-1.1.6-1.9 1.6-2.2 2.7-.9 2.3-1.6 4.6-2.5 6.9-1 2.4-2.2 5.9-4.7 7.1-.5.3-.8 2.1 0 1.7 1.6-.8 2.6-2.5 3.5-4 1.1-2.1 2.1-4.3 2.9-6.6.6-1.6 1.1-3.3 1.7-4.8 1.6-3.9 6.4.6 4.6 2.1h.6c-1.1-1.8-2.5-3-4.3-1.3-1 1-1.4 2.4-1.9 3.7-1.7 4.4-3.5 9.9-7.2 13.1-.2.4-.3 2.1.4 1.5"/><path d="m51.2 80.2c-.3-2.1-.7-4.2-1.3-6.3-.8-2.8-3-6-1.8-9 .8-2 1.8-3.8 1.1-6-.4-1.4 1-2.3 1.8-3.4.6-.9.9-1.9.9-3 0-.2 0-.5-.3-.6-.5-.1-1-.1-1.5.1s-1.1.4-1.5.7c-.2.1-.6.5-.7.5-.2-.1-.4-.3-.6-.4-2.1-1.3-4.8-1.1-6.7.5l.5-.1c-.9-.8-2.1-1.3-3.3-1.5-.5-.1-.7.6-.8 1-.4 2.3.3 4.3 1.5 6.2.7 1.1.3 2.4.6 3.7.4 1.5 1.6 2.9 1.7 4.5.1 1.4-.7 2.6-1.3 3.8-.5 1.2-1 2.4-1.3 3.7-1 2.9-1.2 5.9-.7 8.9.3-.4.6-.8 1-1.2-.5-1.2-2-3.4-3.5-2-1 .9-1.2 2.6-1.2 3.8-.3 4.5 2.2 8.7 6.2 10.6 4.2 1.9 9.1 1.2 11-3.3 1-2.5 1.3-5.1.8-7.8-.2-1-1.1.5-1 1.1.2 1.6.2 3.3-.2 4.9-.9 3.8-4.3 4.7-7.8 4-4-.8-7.1-3.9-7.8-8-.3-1.2-.3-2.4.1-3.6.6-1.5 2.3 1.1 2.5 1.7.3.8 1-.8 1-1.2-.7-3.2.1-6.5 1.2-9.5.8-2.2 2-4.1 2.1-6.5.1-1.3-.7-2.3-1.2-3.4-.3-.7-.6-1.4-.7-2.1-.1-.5.1-1.1 0-1.6-.2-1.5-1.2-2.5-1.7-3.8-.3-.9-.4-1.9-.2-2.8-.3.3-.5.7-.8 1 1.1.2 2.2.7 3 1.4.2.1.3 0 .5-.1 1.7-1.5 4.7-1.2 6.4.2.1.1.3.1.4 0 .8-.5 2.4-1.7 3.4-1.2-.1-.2-.2-.4-.3-.6 0 1.6-1.7 2.4-2.5 3.5-.5.7-.6 1.6-.4 2.5.1.4.3.9.4 1.3.2 1 0 2.1-.6 3-.5.9-.8 1.9-1 3-.4 2.5.8 4.9 1.6 7.2.9 2.4 1.5 5 1.8 7.6.3.8 1.3-.8 1.2-1.4"/><path d="m15.7 90.2c3.5-3.5 5.2-8.4 4.6-13.3l-.8.4c2.6 3.5 2.6 8.5 1.1 12.4-.2.6.6 1.4.9.7 1.7-4.4 1.7-9.9-1.3-13.9-.1-.2-.4-.3-.6-.1-.2.1-.2.3-.2.5.5 4.6-1.1 9.2-4.3 12.5-.6.3.1 1.3.6.8"/><path d="m73.5 40.7c1.7-.3 3.3-.4 5-.4 2.4 0 4.2.5 5.3 1.5s1.8 2.5 1.8 4c.1 1.5-.5 3-1.5 4.1-1.3 1.3-3.4 1.9-5.7 1.9-.5 0-1.1 0-1.6-.1v6.8h-3.2zm3.3 8.4c.5.1 1.1.2 1.6.1 2.4 0 3.9-1.2 3.9-3.3 0-2-1.4-3-3.7-3-.6 0-1.3 0-1.9.2z"/><path d="m89.1 52.8c.1 2.3 1.9 3.4 4 3.4 1.2 0 2.4-.2 3.6-.6l.5 2.3c-1.4.6-3 .9-4.5.8-4.2 0-6.7-2.6-6.7-6.6 0-3.6 2.2-7 6.3-7s5.6 3.5 5.6 6.3c0 .5 0 .9-.1 1.4zm5.7-2.2c0-1.2-.5-3.2-2.7-3.2-2 0-2.9 1.8-3 3.2z"/><path d="m103.5 42.1v3.3h3.1v2.4h-3.1v5.7c0 1.6.4 2.4 1.7 2.4.4 0 .9 0 1.3-.2v2.5c-.8.2-1.6.4-2.4.3-1.1 0-2.1-.4-2.8-1.1s-1-1.9-1-3.6v-6.1h-1.9v-2.4h1.9v-2.3z"/><path d="m110.5 52.8c.1 2.3 1.9 3.4 4 3.4 1.2 0 2.4-.2 3.6-.6l.5 2.3c-1.4.6-3 .9-4.5.8-4.2 0-6.7-2.6-6.7-6.6 0-3.6 2.2-7 6.3-7 4.2 0 5.6 3.5 5.6 6.3 0 .5 0 .9-.1 1.4zm5.7-2.2c0-1.2-.5-3.2-2.7-3.2-2 0-2.9 1.8-3 3.2z"/><path d="m121.1 49.6c0-1.8 0-3-.1-4.2h2.9l.1 2.5h.1c.5-1.6 1.9-2.7 3.5-2.8.3 0 .5 0 .8.1v3.1c-.3-.1-.6-.1-.9-.1-1.5 0-2.7 1-2.9 2.5-.1.3-.1.7-.1 1v6.7h-3.3z"/><path d="m129.8 39.5h3.3v7.7h.1c.9-1.4 2.5-2.2 4.2-2.1 3.2 0 5.4 2.6 5.4 6.6 0 4.7-3 7-5.9 7-1.7.1-3.3-.8-4.1-2.2h-.1l-.2 1.9h-2.8c.1-.9.1-2.3.1-3.7zm3.3 13.6c0 .3 0 .5.1.8.3 1.3 1.5 2.3 2.9 2.3 2 0 3.3-1.7 3.3-4.3 0-2.3-1.1-4.2-3.3-4.2-1.4 0-2.6 1-2.9 2.4-.1.3-.1.6-.1.9z"/><path d="m156.9 51.8c0 4.8-3.4 6.9-6.7 6.9-3.7 0-6.5-2.5-6.5-6.7 0-4.3 2.8-6.9 6.7-6.9s6.5 2.7 6.5 6.7m-9.8.1c0 2.5 1.2 4.4 3.2 4.4 1.9 0 3.2-1.8 3.2-4.5 0-2-.9-4.3-3.1-4.3s-3.3 2.3-3.3 4.4"/><path d="m158.8 49.6c0-1.8 0-3-.1-4.2h2.8l.1 2.5h.1c.5-1.6 1.9-2.7 3.5-2.8.3 0 .5 0 .8.1v3.1c-.3-.1-.6-.1-1-.1-1.5 0-2.7 1-2.9 2.5-.1.3-.1.7-.1 1v6.7h-3.3z"/><path d="m179.6 51.8c0 4.8-3.4 6.9-6.7 6.9-3.7 0-6.5-2.5-6.5-6.7 0-4.3 2.8-6.9 6.7-6.9s6.5 2.7 6.5 6.7m-9.8.1c0 2.5 1.2 4.4 3.2 4.4 1.9 0 3.2-1.8 3.2-4.5 0-2-.9-4.3-3.1-4.3s-3.3 2.3-3.3 4.4"/><path d="m193.1 54.5c0 1.5.1 2.8.1 3.9h-2.9l-.2-2h-.1c-.9 1.4-2.5 2.3-4.1 2.3-2.4 0-4.5-1.4-4.5-5.6v-7.6h3.3v7.1c0 2.2.7 3.5 2.4 3.5 1.1 0 2.1-.7 2.5-1.8.1-.3.2-.7.2-1v-7.8h3.3z"/><path d="m207.6 56.5c0 2.7-.6 4.7-1.9 5.9-1.4 1.2-3.2 1.6-5 1.6-1.6 0-3.1-.3-4.5-1l.7-2.5c1.2.6 2.5 1 3.8 1 2.1 0 3.7-1.1 3.7-3.9v-1.1h-.1c-.8 1.2-2.3 2-3.8 1.9-3.2 0-5.5-2.7-5.5-6.3 0-4.3 2.8-6.8 5.9-6.8 1.5-.1 3 .7 3.8 2h.1l.1-1.7h2.9c-.1.9-.1 1.9-.1 3.7zm-3.3-5.9c0-.3 0-.6-.1-.9-.3-1.2-1.4-2.1-2.7-2.1-1.8 0-3.2 1.6-3.2 4.3 0 2.2 1.1 4 3.2 4 1.2 0 2.3-.8 2.7-2 .1-.4.1-.8.1-1.2z"/><path d="m210.3 39.5h3.3v7.7c.9-1.3 2.3-2.1 3.9-2.1 2.2 0 4.5 1.5 4.5 5.6v7.6h-3.3v-7.3c0-1.9-.7-3.3-2.5-3.3-1.1 0-2.2.7-2.5 1.8-.1.3-.2.7-.1 1v7.8h-3.3z"/><path d="m77.5 64.6v7.2h7.6v-7.2h3.3v17.9h-3.3v-7.9h-7.6v7.9h-3.3v-17.9z"/><path d="m102.2 78.6c0 1.5.1 2.8.1 3.9h-2.9l-.2-2h-.1c-.9 1.5-2.5 2.3-4.2 2.3-2.4 0-4.5-1.4-4.5-5.6v-7.6h3.3v7.1c0 2.2.7 3.5 2.4 3.5 1.1 0 2.1-.7 2.5-1.8.1-.3.2-.7.2-1v-7.8h3.3z"/><path d="m104.4 73.4c0-1.5 0-2.8-.1-3.9h2.8l.1 1.9h.1c.8-1.4 2.4-2.3 4-2.2 1.6 0 3 .9 3.6 2.4h.1c.4-.7.9-1.2 1.6-1.6.8-.5 1.7-.8 2.6-.8 2.2 0 4.3 1.5 4.3 5.6v7.6h-3.2v-7.2c0-2.2-.7-3.4-2.3-3.4-1.1 0-2 .7-2.3 1.7-.1.4-.1.7-.2 1.1v7.8h-3.2v-7.4c0-1.8-.7-3.1-2.2-3.1-1.1.1-2 .8-2.3 1.9-.1.3-.2.7-.2 1.1v7.7h-3.2z"/><path d="m136.2 79.4c0 1 0 2.1.2 3.1h-3l-.2-1.4h-.1c-.9 1.1-2.4 1.8-3.8 1.7-2.1.1-3.9-1.5-4.1-3.6 0-.1 0-.2 0-.2 0-3.3 2.9-4.9 7.7-4.9v-.2c0-.8-.3-2.3-2.6-2.3-1.2 0-2.4.3-3.5 1l-.6-2.1c1.4-.8 3.1-1.2 4.7-1.1 4.2 0 5.4 2.6 5.4 5.5zm-3.2-3.2c-2.3-.1-4.5.5-4.5 2.4-.1.9.6 1.8 1.6 1.9h.3c1.1 0 2.2-.7 2.6-1.8.1-.2.1-.5.1-.7v-1.8z"/><path d="m138.6 73.4c0-1.5 0-2.8-.1-3.9h2.9l.2 1.9h.1c.9-1.4 2.5-2.3 4.1-2.2 2.3 0 4.6 1.5 4.6 5.6v7.7h-3.3v-7.3c0-1.9-.7-3.3-2.5-3.3-1.2 0-2.2.8-2.6 1.9-.1.3-.1.7-.1 1.1v7.6h-3.3z"/><path d="m155.2 77c.1 2.3 1.9 3.4 4 3.4 1.2 0 2.4-.2 3.6-.6l.5 2.3c-1.4.6-3 .8-4.5.8-4.2 0-6.7-2.6-6.7-6.6 0-3.6 2.2-7 6.3-7 4.2 0 5.6 3.5 5.6 6.3 0 .5 0 .9-.1 1.4zm5.7-2.3c0-1.2-.5-3.2-2.7-3.2-2 0-2.9 1.8-3 3.2z"/><path d="m170.6 79c1.3.7 2.8 1.1 4.3 1.1 2.1 0 3.3-1 3.3-2.4s-.9-2.2-3.2-3c-3-1.1-4.8-2.6-4.8-5.2 0-2.9 2.4-5.2 6.3-5.2 1.5 0 3 .3 4.3.9l-.8 2.7c-1.1-.6-2.3-.9-3.6-.9-2.1 0-3 1.1-3 2.2 0 1.4 1 2 3.4 3 3.1 1.2 4.6 2.7 4.6 5.3 0 2.9-2.2 5.4-6.8 5.4-1.7 0-3.4-.4-4.9-1.1z"/><path d="m196 75.9c0 4.8-3.4 6.9-6.7 6.9-3.7 0-6.5-2.5-6.5-6.7 0-4.3 2.8-6.9 6.7-6.9s6.5 2.8 6.5 6.7m-9.7.1c0 2.5 1.2 4.4 3.2 4.4 1.9 0 3.2-1.8 3.2-4.5 0-2-.9-4.3-3.1-4.3s-3.3 2.3-3.3 4.4"/><path d="m207.7 82.1c-1.2.5-2.4.7-3.7.7-4 0-6.7-2.6-6.7-6.6 0-3.9 2.7-6.9 7.2-6.9 1.1 0 2.2.2 3.2.6l-.6 2.4c-.8-.3-1.6-.5-2.5-.5-2.5 0-4 1.8-4 4.2 0 2.7 1.7 4.2 4 4.2.9 0 1.8-.2 2.6-.5z"/><path d="m213.3 65.9c0 1-.8 1.8-1.8 1.9-1 0-1.8-.8-1.9-1.8 0-1 .8-1.8 1.8-1.9 1-.1 1.8.7 1.8 1.6.1.1.1.2.1.2m-3.5 3.6h3.3v13h-3.3z"/><path d="m218.2 77c.1 2.3 1.9 3.4 4 3.4 1.2 0 2.4-.2 3.6-.6l.5 2.3c-1.4.6-3 .8-4.5.8-4.2 0-6.7-2.6-6.7-6.6 0-3.6 2.2-7 6.3-7s5.6 3.5 5.6 6.3c0 .5 0 .9-.1 1.4zm5.7-2.3c0-1.2-.5-3.2-2.7-3.2-2 0-2.9 1.8-3 3.2z"/><path d="m232.7 66.2v3.3h3.1v2.5h-3.1v5.7c0 1.6.4 2.4 1.7 2.4.4 0 .9 0 1.3-.2l.1 2.5c-.8.2-1.6.4-2.4.3-1.1 0-2.1-.4-2.8-1.1-.7-.8-1-1.9-1-3.7v-5.9h-1.9v-2.4h1.9v-2.4z"/><path d="m240.6 69.5 2.3 7c.3.8.5 1.8.7 2.5h.1c.2-.7.5-1.7.7-2.6l2-6.9h3.5l-3.2 8.8c-1.8 4.9-3 7-4.5 8.3-1 .9-2.1 1.5-3.4 1.7l-.8-2.8c.7-.2 1.3-.5 1.9-.9.8-.5 1.4-1.2 1.8-2 .1-.2.2-.4.2-.6s-.1-.4-.2-.6l-4.7-11.9z"/><path d="m52.2 32.4v-8.2-1.5h-9.5v3.7c-4.8-3.5-8.7-6.9-8.7-6.9s-7.5 6.5-14.4 10.8c-6 3.6-12.6 5.9-19.5 6.9v1c2.1.1 4.2 0 6.3-.3v25h3.5v-25.8c4-.8 7.9-2.3 11.4-4.3 4.5-2.7 8.8-5.7 12.8-9.1 4 3.4 8.3 6.5 12.8 9.1 3.5 2 7.3 3.4 11.2 4.3v25.6h3.4v-25c2.2.3 4.4.5 6.5.4v-1c-5.5-.7-10.8-2.3-15.8-4.7z"/></g><path d="m51.3 13.8c1.8-1.2 6.2-4.2 5.7-7.4-.4-3.3-4.8-3-6-.2 0 0-3-3.4-5.3-.3s3.7 7.1 4.8 7.6z" fill="#dd1a26"/><path d="m46.7 23.1c-.1-1.2.2-2.3.7-3.3.7-1.1 3.1-.8 2.3.6-.2.4-1 .6-1.5.7-2.1.4-2.7-1-2.7-2.7 0-2.3 3-3.2 4.9-4.1 3.1-1.4 7.9-4.5 6.8-8.3-.9-3.3-5.5-2.5-6.7.1l.7-.1c-.8-.8-1.8-1.4-2.9-1.7-1.6-.2-3.2.8-3.7 2.4-.6 2.8 3 5.7 5.4 6.8.3.1 1-.1.6-.3-2.1-1-3.9-2.7-5-4.8-.7-1.5.3-4 2.4-3.8 1.2.4 2 1 2.6 1.7.1.2.6.2.7 0 .5-1.2 1.6-2 2.9-2 1.7-.1 2.3 1.5 2.4 2.8 0 2.7-2.7 4.8-4.9 6.1-1.9 1.2-4.3 1.8-6 3.2-1.3 1.1-1.3 3.5-.2 4.7s5.7.6 5.1-1.5c-.4-1.4-3.1-.8-3.8 0-.9.9-1 2.5-.9 3.7 0 .2.8.1.8-.2" fill="#fff"/></svg>